<svg width="20" height="19" viewBox="0 0 20 19" fill="none" xmlns="http://www.w3.org/2000/svg">
<path d="M16.024 15.513V17.6948M4.38761 15.513V17.6948M14.9331 8.96755H18.9331M14.9331 8.96755C14.9331 10.5742 13.6306 11.8766 12.024 11.8766C10.4173 11.8766 9.11488 10.5742 9.11488 8.96755C9.11488 7.36091 10.4173 6.05846 12.024 6.05846C13.6306 6.05846 14.9331 7.36091 14.9331 8.96755ZM2.20579 1.69482H18.2058C18.6075 1.69482 18.9331 2.02044 18.9331 2.4221V14.7857C18.9331 15.1874 18.6075 15.513 18.2058 15.513H2.20579C1.80413 15.513 1.47852 15.1874 1.47852 14.7857V2.4221C1.47852 2.02044 1.80413 1.69482 2.20579 1.69482Z" stroke="#C98E26" stroke-width="1.5" stroke-linecap="round" stroke-linejoin="round"/>
</svg>
