<svg width="22" height="19" viewBox="0 0 22 19" fill="none" xmlns="http://www.w3.org/2000/svg">
<path d="M13.4785 7.69482H16.6785M13.4785 11.6948H16.6785M5.48852 13.2948C5.48852 12.7113 5.7203 12.1518 6.13288 11.7392C6.54546 11.3266 7.10504 11.0948 7.68852 11.0948C8.27199 11.0948 8.83157 11.3266 9.24415 11.7392C9.65673 12.1518 9.88852 12.7113 9.88852 13.2948M9.88852 8.49482C9.88852 9.70985 8.90354 10.6948 7.68852 10.6948C6.47349 10.6948 5.48852 9.70985 5.48852 8.49482C5.48852 7.2798 6.47349 6.29482 7.68852 6.29482C8.90354 6.29482 9.88852 7.2798 9.88852 8.49482ZM2.27852 1.69482H19.8785C20.3203 1.69482 20.6785 2.053 20.6785 2.49482V16.8948C20.6785 17.3367 20.3203 17.6948 19.8785 17.6948H2.27852C1.83669 17.6948 1.47852 17.3367 1.47852 16.8948V2.49482C1.47852 2.053 1.83669 1.69482 2.27852 1.69482Z" stroke="#C98E26" stroke-width="1.5" stroke-linecap="round" stroke-linejoin="round"/>
</svg>
