<svg width="81" height="81" viewBox="0 0 81 81" fill="none" xmlns="http://www.w3.org/2000/svg">
<path d="M40.0986 80.1284C62.19 80.1284 80.0986 62.2198 80.0986 40.1284C80.0986 18.037 62.19 0.128418 40.0986 0.128418C18.0072 0.128418 0.0986328 18.037 0.0986328 40.1284C0.0986328 62.2198 18.0072 80.1284 40.0986 80.1284Z" fill="#7E7E7E"/>
<path d="M27.0665 49.2896C32.0342 56.1283 47.5181 56.6444 52.8084 49.2896C58.4858 50.988 69.9568 57.0546 70.4213 66.2165C63.0859 74.7349 52.2221 80.1283 40.0987 80.1283C27.7964 80.1283 16.7911 74.5744 9.45361 65.8372C9.91813 56.6753 21.3891 50.988 27.0665 49.2896Z" fill="#F1F6F9"/>
<path d="M40.1631 50.3218C49.0353 50.3218 56.2276 42.0318 56.2276 31.8057C56.2276 21.5795 49.0353 13.2896 40.1631 13.2896C31.291 13.2896 24.0986 21.5795 24.0986 31.8057C24.0986 42.0318 31.291 50.3218 40.1631 50.3218Z" fill="#F1F6F9"/>
</svg>
